<svg width="1728" height="1117" viewBox="0 0 1728 1117" fill="none" xmlns="http://www.w3.org/2000/svg">
<path opacity="0.0144928" d="M1587.23 1593.65C1596.29 1598.45 1607.43 1596.69 1614.55 1589.32L1840.89 1355.24C1845.1 1350.88 1847.42 1345.04 1847.35 1338.97L1841.73 872.909C1841.67 868.142 1840.14 863.51 1837.33 859.655L1597.19 529.549C1592.1 522.559 1583.53 519.01 1574.99 520.362L1294.54 564.781C1286 566.134 1278.94 572.159 1276.27 580.378L1149.88 968.537C1148.41 973.07 1148.37 977.949 1149.79 982.501L1288.47 1427.49C1290.28 1433.28 1294.29 1438.12 1299.65 1440.96L1587.23 1593.65Z" stroke="url(#paint0_linear_1202_5)" stroke-width="4"/>
<path opacity="0.0289855" d="M1536.08 1592.16C1544.86 1597.4 1556.04 1596.23 1563.53 1589.27L1800.45 1369.33C1804.9 1365.2 1807.53 1359.47 1807.78 1353.41L1826.61 891.976C1826.8 887.198 1825.5 882.478 1822.89 878.473L1601.81 539.496C1597.09 532.265 1588.73 528.284 1580.14 529.186L1299.43 558.69C1290.84 559.592 1283.49 565.227 1280.38 573.28L1134.6 950.815C1132.88 955.276 1132.59 960.163 1133.78 964.796L1248.13 1412.23C1249.63 1418.11 1253.4 1423.16 1258.61 1426.27L1536.08 1592.16Z" stroke="url(#paint1_linear_1202_5)" stroke-width="4"/>
<path opacity="0.0434783" d="M1485.32 1589.12C1493.8 1594.78 1504.99 1594.2 1512.83 1587.67L1759.47 1382.32C1764.14 1378.43 1767.09 1372.85 1767.65 1366.8L1810.43 911.271C1810.88 906.496 1809.82 901.7 1807.41 897.555L1605.66 550.788C1601.32 543.336 1593.18 538.934 1584.58 539.385L1304.39 554.069C1295.78 554.52 1288.15 559.749 1284.61 567.613L1120.22 933.569C1118.25 937.944 1117.7 942.824 1118.65 947.526L1208.8 1396.09C1210 1402.05 1213.51 1407.29 1218.56 1410.67L1485.32 1589.12Z" stroke="url(#paint2_linear_1202_5)" stroke-width="4"/>
<path opacity="0.057971" d="M1435.04 1584.56C1443.19 1590.64 1454.37 1590.64 1462.52 1584.56L1718.02 1394.22C1722.91 1390.58 1726.15 1385.15 1727.03 1379.13L1793.19 930.736C1793.89 925.977 1793.09 921.117 1790.88 916.841L1608.67 563.37C1604.72 555.717 1596.83 550.908 1588.22 550.908L1309.34 550.908C1300.73 550.908 1292.84 555.717 1288.9 563.37L1106.68 916.841C1104.48 921.117 1103.67 925.977 1104.37 930.736L1170.53 1379.13C1171.42 1385.15 1174.66 1390.58 1179.54 1394.22L1435.04 1584.56Z" stroke="url(#paint3_linear_1202_5)" stroke-width="4"/>
<path opacity="0.0724638" d="M1385.31 1578.54C1393.13 1585 1404.25 1585.58 1412.7 1579.97L1676.16 1404.99C1681.24 1401.62 1684.77 1396.36 1685.98 1390.39L1774.89 950.313C1775.85 945.583 1775.29 940.671 1773.3 936.274L1610.77 577.184C1607.22 569.351 1599.6 564.149 1591.02 563.699L1314.2 549.192C1305.62 548.742 1297.5 553.119 1293.15 560.538L1093.97 900.672C1091.54 904.837 1090.47 909.663 1090.92 914.468L1133.35 1361.42C1133.92 1367.49 1136.89 1373.09 1141.58 1376.97L1385.31 1578.54Z" stroke="url(#paint4_linear_1202_5)" stroke-width="4"/>
<path opacity="0.0869565" d="M1336.22 1571.08C1343.67 1577.91 1354.71 1579.07 1363.43 1573.94L1633.95 1414.63C1639.21 1411.53 1643.03 1406.46 1644.55 1400.55L1755.53 969.942C1756.73 965.253 1756.43 960.303 1754.66 955.796L1611.9 592.169C1608.76 584.177 1601.43 578.597 1592.89 577.7L1318.9 548.901C1310.36 548.004 1302.03 551.938 1297.3 559.103L1082.05 885.102C1079.38 889.142 1078.06 893.922 1078.27 898.759L1097.29 1343.03C1097.55 1349.13 1100.22 1354.88 1104.73 1359.01L1336.22 1571.08Z" stroke="url(#paint5_linear_1202_5)" stroke-width="4"/>
<path opacity="0.101449" d="M1287.83 1562.24C1294.9 1569.42 1305.83 1571.15 1314.78 1566.51L1591.46 1423.13C1596.89 1420.32 1600.98 1415.45 1602.81 1409.62L1735.1 989.564C1736.56 984.931 1736.52 979.956 1734.97 975.35L1612.01 608.26C1609.29 600.13 1602.27 594.19 1593.8 592.848L1323.35 550.013C1314.88 548.672 1306.37 552.152 1301.26 559.043L1070.88 870.168C1067.99 874.071 1066.41 878.79 1066.37 883.646L1062.38 1324.02C1062.32 1330.14 1064.71 1336.03 1069 1340.38L1287.83 1562.24Z" stroke="url(#paint6_linear_1202_5)" stroke-width="4"/>
<path opacity="0.115942" d="M1240.2 1552.08C1246.89 1559.59 1257.68 1561.88 1266.84 1557.74L1548.74 1430.48C1554.33 1427.96 1558.67 1423.32 1560.82 1417.58L1713.63 1009.12C1715.34 1004.56 1715.55 999.57 1714.24 994.877L1611.04 625.391C1608.74 617.145 1602.05 610.86 1593.67 609.08L1327.48 552.499C1319.11 550.719 1310.44 553.738 1304.98 560.335L1060.42 855.903C1057.32 859.658 1055.48 864.302 1055.18 869.166L1028.65 1304.46C1028.28 1310.58 1030.36 1316.59 1034.44 1321.17L1240.2 1552.08Z" stroke="url(#paint7_linear_1202_5)" stroke-width="4"/>
<path opacity="0.130435" d="M1193.42 1540.65C1199.7 1548.46 1210.32 1551.3 1219.66 1547.68L1505.87 1436.7C1511.59 1434.48 1516.19 1430.06 1518.64 1424.44L1691.12 1028.56C1693.07 1024.08 1693.55 1019.09 1692.47 1014.32L1608.96 643.492C1607.08 635.152 1600.73 628.542 1592.47 626.329L1331.23 556.33C1322.97 554.118 1314.17 556.668 1308.37 562.951L1050.63 842.341C1047.32 845.935 1045.23 850.492 1044.68 855.35L996.12 1284.43C995.429 1290.53 997.204 1296.65 1001.05 1301.43L1193.42 1540.65Z" stroke="url(#paint8_linear_1202_5)" stroke-width="4"/>
<path opacity="0.144928" d="M1147.54 1528C1153.4 1536.09 1163.81 1539.47 1173.31 1536.37L1462.89 1441.76C1468.74 1439.85 1473.57 1435.69 1476.32 1430.19L1667.58 1047.82C1669.78 1043.44 1670.51 1038.46 1669.68 1033.63L1605.7 662.493C1604.25 654.081 1598.26 647.163 1590.14 644.526L1334.52 561.471C1326.41 558.833 1317.49 560.908 1311.38 566.862L1041.47 829.511C1037.95 832.933 1035.63 837.389 1034.82 842.229L964.806 1263.99C963.799 1270.05 965.261 1276.27 968.866 1281.24L1147.54 1528Z" stroke="url(#paint9_linear_1202_5)" stroke-width="4"/>
<path opacity="0.15942" d="M1102.61 1514.2C1108.04 1522.55 1118.22 1526.46 1127.84 1523.88L1419.89 1445.7C1425.83 1444.1 1430.89 1440.19 1433.93 1434.84L1643.03 1066.86C1645.47 1062.58 1646.46 1057.63 1645.87 1052.74L1601.24 682.32C1600.22 673.858 1594.6 666.653 1586.65 663.599L1337.3 567.882C1329.34 564.828 1320.34 566.424 1313.92 572.031L1032.89 817.442C1029.19 820.679 1026.62 825.022 1025.56 829.829L934.721 1243.21C933.4 1249.22 934.544 1255.51 937.898 1260.68L1102.61 1514.2Z" stroke="url(#paint10_linear_1202_5)" stroke-width="4"/>
<path opacity="0.173913" d="M1058.69 1499.31C1063.67 1507.9 1073.61 1512.32 1083.32 1510.27L1376.9 1448.5C1382.94 1447.23 1388.21 1443.59 1391.53 1438.4L1617.5 1085.6C1620.16 1081.44 1621.42 1076.54 1621.07 1071.61L1595.53 702.898C1594.95 694.408 1589.72 686.937 1581.94 683.475L1339.48 575.523C1331.71 572.062 1322.66 573.177 1315.95 578.42L1024.86 806.156C1020.97 809.199 1018.16 813.415 1016.85 818.178L905.874 1222.17C904.241 1228.11 905.064 1234.47 908.159 1239.8L1058.69 1499.31Z" stroke="url(#paint11_linear_1202_5)" stroke-width="4"/>
<path opacity="0.188406" d="M1015.84 1483.4C1020.36 1492.2 1030.02 1497.12 1039.8 1495.61L1334 1450.19C1340.11 1449.25 1345.58 1445.89 1349.18 1440.87L1590.99 1104.01C1593.88 1099.98 1595.4 1095.13 1595.3 1090.18L1588.56 724.15C1588.4 715.655 1583.57 707.938 1576 704.081L1341.02 584.35C1333.45 580.493 1324.37 581.123 1317.4 585.99L1017.32 795.677C1013.25 798.516 1010.22 802.592 1008.66 807.298L878.271 1200.93C876.329 1206.79 876.826 1213.19 879.652 1218.68L1015.84 1483.4Z" stroke="url(#paint12_linear_1202_5)" stroke-width="4"/>
<path opacity="0.202899" d="M974.088 1466.54C978.153 1475.52 987.499 1480.92 997.316 1479.95L1291.25 1450.78C1297.4 1450.17 1303.05 1447.1 1306.92 1442.27L1563.55 1122.04C1566.66 1118.15 1568.43 1113.37 1568.59 1108.39L1580.29 746C1580.56 737.522 1576.14 729.581 1568.8 725.34L1341.86 594.314C1334.51 590.073 1325.42 590.22 1318.22 594.696L1010.23 786.024C1006 788.649 1002.74 792.575 1000.93 797.21L851.911 1179.57C849.664 1185.34 849.835 1191.76 852.384 1197.4L974.088 1466.54Z" stroke="url(#paint13_linear_1202_5)" stroke-width="4"/>
<path opacity="0.217391" d="M933.486 1448.79C937.081 1457.95 946.097 1463.8 955.921 1463.36L1248.69 1450.29C1254.88 1450.01 1260.7 1447.25 1264.82 1442.62L1535.19 1139.62C1538.51 1135.9 1540.53 1131.19 1540.94 1126.21L1570.69 768.37C1571.4 759.931 1567.4 751.788 1560.3 747.176L1341.93 605.366C1334.83 600.754 1325.77 600.418 1318.34 604.491L1003.54 777.216C999.158 779.618 995.682 783.379 993.63 787.931L826.791 1158.16C824.245 1163.81 824.087 1170.25 826.353 1176.02L933.486 1448.79Z" stroke="url(#paint14_linear_1202_5)" stroke-width="4"/>
<path opacity="0.231884" d="M894.07 1430.24C897.189 1439.53 905.852 1445.83 915.652 1445.92L1206.39 1448.73C1212.59 1448.79 1218.56 1446.34 1222.94 1441.94L1505.94 1156.72C1509.47 1153.17 1511.74 1148.55 1512.41 1143.59L1559.77 791.18C1560.89 782.801 1557.33 774.48 1550.49 769.51L1341.2 617.453C1334.36 612.483 1325.35 611.667 1317.72 615.327L997.199 769.266C992.682 771.436 988.996 775.021 986.704 779.477L802.905 1136.77C800.066 1142.29 799.577 1148.72 801.553 1154.61L894.07 1430.24Z" stroke="url(#paint15_linear_1202_5)" stroke-width="4"/>
<path opacity="0.246377" d="M855.871 1410.95C858.509 1420.36 866.799 1427.07 876.546 1427.7L1164.39 1446.15C1170.6 1446.55 1176.7 1444.41 1181.31 1440.24L1475.84 1173.3C1479.57 1169.92 1482.09 1165.42 1483.01 1160.47L1547.49 814.352C1549.04 806.055 1545.91 797.578 1539.35 792.266L1339.61 630.518C1333.05 625.207 1324.11 623.915 1316.32 627.152L991.168 762.186C986.522 764.115 982.637 767.514 980.108 771.861L780.241 1115.46C777.114 1120.84 776.297 1127.25 777.976 1133.24L855.871 1410.95Z" stroke="url(#paint16_linear_1202_5)" stroke-width="4"/>
<path opacity="0.26087" d="M818.919 1391.01C821.072 1400.5 828.967 1407.61 838.632 1408.76L1122.76 1442.55C1128.94 1443.29 1135.16 1441.48 1140 1437.55L1444.93 1189.3C1448.84 1186.12 1451.6 1181.73 1452.78 1176.82L1533.86 837.807C1535.82 829.613 1533.14 821.003 1526.88 815.365L1337.12 644.507C1330.86 638.869 1322.02 637.106 1314.07 639.912L985.395 755.984C980.634 757.666 976.558 760.868 973.797 765.095L758.784 1094.31C755.377 1099.52 754.232 1105.9 755.611 1111.97L818.919 1391.01Z" stroke="url(#paint17_linear_1202_5)" stroke-width="4"/>
<path opacity="0.275362" d="M783.234 1370.48C784.902 1380.04 792.384 1387.52 801.938 1389.19L1081.53 1437.98C1087.68 1439.05 1094 1437.58 1099.04 1433.9L1413.24 1204.7C1417.33 1201.71 1420.32 1197.45 1421.75 1192.59L1518.87 861.466C1521.24 853.395 1519.01 844.676 1513.06 838.729L1333.69 659.358C1327.74 653.41 1319.02 651.183 1310.95 653.55L979.831 750.669C974.967 752.096 970.71 755.089 967.723 759.184L738.515 1073.38C734.837 1078.42 733.366 1084.74 734.438 1090.89L783.234 1370.48Z" stroke="url(#paint18_linear_1202_5)" stroke-width="4"/>
<path opacity="0.289855" d="M748.839 1349.45C750.02 1359.04 757.071 1366.87 766.486 1369.05L1040.77 1432.46C1046.86 1433.87 1053.26 1432.74 1058.5 1429.33L1380.8 1219.44C1385.07 1216.66 1388.29 1212.55 1389.97 1207.74L1502.52 885.25C1505.29 877.324 1503.52 868.52 1497.9 862.281L1329.28 675.011C1323.66 668.772 1315.09 666.089 1306.92 668.012L974.428 746.243C969.475 747.408 965.048 750.183 961.84 754.134L719.413 1052.73C715.473 1057.58 713.677 1063.83 714.441 1070.04L748.839 1349.45Z" stroke="url(#paint19_linear_1202_5)" stroke-width="4"/>
<path opacity="0.304348" d="M715.747 1327.98C716.442 1337.59 723.045 1345.74 732.293 1348.42L1000.51 1426.03C1006.52 1427.77 1012.99 1426.98 1018.41 1423.85L1347.67 1233.49C1352.09 1230.94 1355.54 1226.98 1357.46 1222.25L1484.83 909.082C1487.98 901.32 1486.67 892.455 1481.4 885.943L1323.86 691.403C1318.59 684.891 1310.19 681.762 1301.94 683.236L969.138 742.708C964.109 743.606 959.522 746.154 956.101 749.949L701.451 1032.44C697.258 1037.09 695.143 1043.25 695.595 1049.5L715.747 1327.98Z" stroke="url(#paint20_linear_1202_5)" stroke-width="4"/>
<path opacity="0.318841" d="M683.966 1306.17C684.178 1315.76 690.319 1324.21 699.374 1327.37L960.788 1418.72C966.711 1420.79 973.224 1420.35 978.815 1417.5L1313.88 1246.83C1318.45 1244.5 1322.11 1240.71 1324.28 1236.06L1465.79 932.886C1469.33 925.307 1468.47 916.405 1463.56 909.638L1317.4 708.473C1312.48 701.707 1304.28 698.141 1295.98 699.164L963.913 740.062C958.822 740.689 954.086 743 950.459 746.628L684.601 1012.55C680.164 1016.99 677.733 1023.05 677.872 1029.32L683.966 1306.17Z" stroke="url(#paint21_linear_1202_5)" stroke-width="4"/>
<path opacity="0.333333" d="M653.505 1284.07C653.235 1293.63 658.901 1302.35 667.736 1305.99L921.659 1410.57C927.471 1412.97 934.01 1412.88 939.755 1410.33L1279.47 1259.42C1284.18 1257.32 1288.05 1253.71 1290.46 1249.16L1445.43 956.585C1449.33 949.208 1448.94 940.294 1444.39 933.293L1309.87 726.154C1305.33 719.153 1297.35 715.165 1289.02 715.734L958.705 738.302C953.566 738.653 948.693 740.719 944.868 744.169L668.829 993.136C664.161 997.346 661.42 1003.28 661.243 1009.57L653.505 1284.07Z" stroke="url(#paint22_linear_1202_5)" stroke-width="4"/>
<path opacity="0.347826" d="M624.362 1261.78C623.617 1271.27 628.795 1280.24 637.386 1284.34L883.155 1401.63C888.839 1404.34 895.387 1404.6 901.27 1402.36L1244.5 1271.22C1249.34 1269.37 1253.4 1265.95 1256.05 1261.51L1423.76 980.106C1428.02 972.95 1428.09 964.046 1423.92 956.832L1301.26 744.381C1297.1 737.167 1289.36 732.768 1281.03 732.883L953.468 737.421C948.296 737.493 943.299 739.305 939.284 742.566L654.101 974.247C649.213 978.218 646.167 984.021 645.674 990.3L624.362 1261.78Z" stroke="url(#paint23_linear_1202_5)" stroke-width="4"/>
<path opacity="0.362319" d="M596.536 1239.37C595.322 1248.77 600.002 1257.96 608.323 1262.5L845.313 1391.93C850.85 1394.95 857.387 1395.57 863.392 1393.63L1209.01 1282.22C1213.96 1280.63 1218.21 1277.41 1221.1 1273.08L1400.81 1003.38C1405.42 996.459 1405.93 987.591 1402.16 980.183L1291.54 763.089C1287.77 755.681 1280.29 750.887 1271.98 750.55L948.155 737.41C942.965 737.2 937.856 738.752 933.661 741.816L640.377 955.941C635.282 959.662 631.938 965.312 631.13 971.57L596.536 1239.37Z" stroke="url(#paint24_linear_1202_5)" stroke-width="4"/>
<path opacity="0.376812" d="M570.019 1216.91C568.342 1226.2 572.515 1235.58 580.543 1240.55L808.163 1381.51C813.538 1384.84 820.046 1385.81 826.157 1384.2L1173.05 1292.4C1178.09 1291.06 1182.53 1288.05 1185.64 1283.86L1376.6 1026.33C1381.54 1019.66 1382.51 1010.86 1379.13 1003.28L1280.71 782.212C1277.33 774.632 1270.14 769.457 1261.88 768.67L942.722 738.258C937.528 737.763 932.32 739.049 927.953 741.904L627.617 938.268C622.326 941.727 618.692 947.212 617.569 953.433L570.019 1216.91Z" stroke="url(#paint25_linear_1202_5)" stroke-width="4"/>
<path opacity="0.391304" d="M544.799 1194.48C542.668 1203.64 546.327 1213.17 554.04 1218.55L771.74 1370.43C776.934 1374.06 783.394 1375.38 789.595 1374.09L1136.66 1301.72C1141.79 1300.65 1146.4 1297.86 1149.73 1293.81L1351.16 1048.89C1356.42 1042.5 1357.84 1033.77 1354.87 1026.04L1268.75 801.682C1265.78 793.952 1258.89 788.414 1250.7 787.181L937.124 739.952C931.942 739.172 926.648 740.185 922.121 742.822L615.777 921.275C610.304 924.463 606.387 929.768 604.952 935.937L604.952 935.938L544.799 1194.48Z" stroke="url(#paint26_linear_1202_5)" stroke-width="4"/>
<path opacity="0.405797" d="M520.859 1172.14C518.283 1181.15 521.424 1190.81 528.8 1196.58L736.069 1358.73C741.067 1362.64 747.459 1364.31 753.732 1363.35L1099.9 1310.18C1105.1 1309.38 1109.88 1306.82 1113.42 1302.93L1324.53 1071C1330.09 1064.89 1331.95 1056.27 1329.4 1048.41L1255.65 821.435C1253.1 813.578 1246.53 807.693 1238.43 806.019L931.316 742.475C926.162 741.409 920.797 742.143 916.118 744.555L604.809 905.013C599.168 907.921 594.979 913.03 593.234 919.132L520.859 1172.14Z" stroke="url(#paint27_linear_1202_5)" stroke-width="4"/>
<path opacity="0.42029" d="M498.18 1149.98C495.171 1158.8 497.788 1168.57 504.808 1174.71L701.174 1346.46C705.96 1350.64 712.266 1352.66 718.594 1352.03L1062.82 1317.76C1068.08 1317.24 1073 1314.92 1076.75 1311.19L1296.75 1092.59C1302.6 1086.78 1304.89 1078.29 1302.76 1070.33L1241.42 841.404C1239.28 833.442 1233.05 827.23 1225.08 825.122L925.259 745.811C920.147 744.459 914.726 744.909 909.907 747.086L594.665 889.522C588.871 892.141 584.418 897.041 582.366 903.06L498.18 1149.98Z" stroke="url(#paint28_linear_1202_5)" stroke-width="4"/>
<path opacity="0.434783" d="M476.739 1128.05C473.308 1136.68 475.4 1146.52 482.044 1153.01L667.078 1333.65C671.637 1338.1 677.839 1340.46 684.204 1340.17L1025.46 1324.45C1030.77 1324.21 1035.83 1322.13 1039.78 1318.58L1267.86 1113.61C1273.97 1108.11 1276.69 1099.76 1274.98 1091.72L1226.05 861.525C1224.34 853.48 1218.46 846.96 1210.64 844.426L918.911 749.938C913.857 748.301 908.392 748.464 903.445 750.399L585.296 874.844C579.362 877.165 574.656 881.843 572.301 887.764L476.739 1128.05Z" stroke="url(#paint29_linear_1202_5)" stroke-width="4"/>
<path opacity="0.449275" d="M456.507 1106.43C452.667 1114.84 454.233 1124.73 460.483 1131.54L633.801 1320.37C638.118 1325.07 644.195 1327.77 650.579 1327.82L987.888 1330.24C993.225 1330.28 998.41 1328.46 1002.55 1325.1L1237.89 1133.99C1244.26 1128.81 1247.39 1120.64 1246.11 1112.53L1209.55 881.732C1208.27 873.628 1202.77 866.82 1195.11 863.869L912.232 754.833C907.252 752.913 901.759 752.786 896.695 754.472L576.645 861.014C570.588 863.031 565.641 867.475 562.989 873.282L456.507 1106.43Z" stroke="url(#paint30_linear_1202_5)" stroke-width="4"/>
<path opacity="0.463768" d="M437.454 1085.18C433.219 1093.35 434.26 1103.26 440.101 1110.37L601.356 1306.66C605.417 1311.6 611.354 1314.63 617.74 1315.02L950.142 1335.13C955.496 1335.45 960.794 1333.9 965.121 1330.73L1206.91 1153.67C1213.51 1148.84 1217.05 1140.85 1216.19 1132.71L1191.94 901.963C1191.08 893.822 1185.96 886.749 1178.5 883.391L905.185 760.474C900.294 758.275 894.787 757.854 889.618 759.283L568.661 848.068C562.495 849.774 557.318 853.971 554.374 859.65L437.454 1085.18Z" stroke="url(#paint31_linear_1202_5)" stroke-width="4"/>
<path opacity="0.478261" d="M419.545 1064.36C414.93 1072.27 415.449 1082.17 420.865 1089.56L569.761 1292.57C573.552 1297.74 579.328 1301.09 585.697 1301.82L912.279 1339.11C917.633 1339.72 923.032 1338.43 927.534 1335.47L1174.95 1172.62C1181.77 1168.13 1185.7 1160.36 1185.27 1152.2L1173.22 922.155C1172.79 914 1168.07 906.683 1160.81 902.93L897.732 766.834C892.946 764.358 887.442 763.641 882.181 764.809L561.287 836.035C555.029 837.424 549.634 841.362 546.404 846.899L419.545 1064.36Z" stroke="url(#paint32_linear_1202_5)" stroke-width="4"/>
<path opacity="0.492754" d="M402.741 1044.04C397.762 1051.68 397.762 1061.53 402.741 1069.17L539.022 1278.15C542.531 1283.53 548.131 1287.2 554.465 1288.26L874.348 1342.18C879.688 1343.08 885.175 1342.07 889.842 1339.32L1142.07 1190.78C1149.09 1186.64 1153.4 1179.11 1153.4 1170.96L1153.4 942.247C1153.4 934.101 1149.09 926.563 1142.07 922.429L889.842 773.886C885.175 771.138 879.688 770.124 874.348 771.025L554.465 824.943C548.131 826.01 542.531 829.678 539.022 835.059L402.741 1044.04Z" stroke="url(#paint33_linear_1202_5)" stroke-width="4"/>
<path opacity="0.507246" d="M387.004 1024.27C381.677 1031.61 381.164 1041.4 385.694 1049.26L509.149 1263.45C512.363 1269.03 517.768 1273 524.05 1274.41L836.401 1344.35C841.713 1345.54 847.274 1344.81 852.096 1342.28L1108.33 1208.1C1115.53 1204.33 1120.2 1197.04 1120.63 1188.93L1132.51 962.181C1132.94 954.067 1129.05 946.33 1122.29 941.829L881.48 781.6C876.949 778.585 871.494 777.275 866.087 777.903L548.136 814.813C541.742 815.555 535.951 818.943 532.171 824.153L387.004 1024.27Z" stroke="url(#paint34_linear_1202_5)" stroke-width="4"/>
<path opacity="0.521739" d="M372.288 1005.1C366.631 1012.13 365.612 1021.83 369.683 1029.88L480.146 1248.52C483.055 1254.28 488.248 1258.55 494.459 1260.29L798.488 1345.62C803.755 1347.1 809.378 1346.65 814.345 1344.36L1073.78 1224.55C1081.14 1221.15 1086.17 1214.13 1087.01 1206.07L1110.58 981.898C1111.42 973.838 1107.97 965.927 1101.48 961.074L872.616 789.945C868.234 786.669 862.828 785.063 857.367 785.414L542.242 805.666C535.805 806.08 529.837 809.179 525.794 814.205L372.288 1005.1Z" stroke="url(#paint35_linear_1202_5)" stroke-width="4"/>
<path opacity="0.536232" d="M358.547 986.583C352.578 993.294 351.062 1002.87 354.665 1011.09L452.015 1233.41C454.608 1239.33 459.574 1243.89 465.696 1245.96L760.657 1346C765.866 1347.76 771.536 1347.61 776.638 1345.55L1038.48 1240.09C1045.98 1237.07 1051.34 1230.33 1052.61 1222.35L1087.61 1001.34C1088.88 993.36 1085.86 985.299 1079.66 980.11L863.22 798.891C859.003 795.36 853.66 793.457 848.16 793.528L536.723 797.52C530.258 797.603 524.127 800.403 519.83 805.233L358.547 986.583Z" stroke="url(#paint36_linear_1202_5)" stroke-width="4"/>
<path opacity="0.550725" d="M345.732 968.771C339.47 975.145 337.467 984.57 340.595 992.94L424.756 1218.16C427.024 1224.23 431.746 1229.06 437.762 1231.47L722.96 1345.5C728.094 1347.55 733.797 1347.69 739.022 1345.88L1002.5 1254.68C1010.12 1252.04 1015.8 1245.61 1017.47 1237.72L1063.65 1020.46C1065.33 1012.58 1062.76 1004.39 1056.87 998.884L853.266 808.402C849.228 804.624 843.964 802.427 838.438 802.214L531.517 790.386C525.043 790.137 518.763 792.629 514.223 797.251L345.732 968.771Z" stroke="url(#paint37_linear_1202_5)" stroke-width="4"/>
<path opacity="0.565217" d="M333.791 951.706C327.256 957.731 324.777 966.983 327.425 975.468L398.364 1202.84C400.298 1209.03 404.761 1214.13 410.653 1216.86L685.442 1344.13C690.487 1346.47 696.208 1346.9 701.546 1345.35L965.889 1268.29C973.605 1266.04 979.588 1259.93 981.668 1252.16L1038.73 1039.2C1040.81 1031.44 1038.69 1023.15 1033.13 1017.35L842.728 818.444C838.884 814.428 833.714 811.94 828.177 811.441L526.563 784.273C520.096 783.691 513.684 785.869 508.91 790.27L333.791 951.706Z" stroke="url(#paint38_linear_1202_5)" stroke-width="4"/>
<path opacity="0.57971" d="M322.673 935.43C315.884 941.094 312.942 950.148 315.105 958.72L372.833 1187.47C374.426 1193.78 378.616 1199.12 384.366 1202.17L648.151 1341.92C653.091 1344.54 658.816 1345.27 664.254 1343.97L928.713 1280.9C936.509 1279.04 942.776 1273.26 945.252 1265.64L1012.87 1057.52C1015.35 1049.9 1013.68 1041.54 1008.47 1035.45L831.585 828.981C827.947 824.735 822.888 821.96 817.352 821.173L521.801 779.187C515.358 778.272 508.829 780.129 503.832 784.298L322.673 935.43Z" stroke="url(#paint39_linear_1202_5)" stroke-width="4"/>
<path opacity="0.594203" d="M312.319 919.981C305.298 925.272 301.908 934.104 303.585 942.735L348.156 1172.12C349.4 1178.52 353.303 1184.09 358.895 1187.45L611.133 1338.88C615.954 1341.77 621.667 1342.8 627.194 1341.77L891.04 1292.49C898.895 1291.03 905.426 1285.59 908.289 1278.13L986.122 1075.36C988.986 1067.9 987.773 1059.49 982.917 1053.14L819.814 839.977C816.397 835.512 811.463 832.453 805.944 831.378L517.17 775.131C510.768 773.884 504.138 775.413 498.93 779.339L312.319 919.981Z" stroke="url(#paint40_linear_1202_5)" stroke-width="4"/>
<path opacity="0.608696" d="M302.677 905.39C295.443 910.301 291.62 918.889 292.81 927.551L324.319 1156.82C325.209 1163.3 328.813 1169.09 334.23 1172.75L574.431 1335.03C579.116 1338.2 584.804 1339.52 590.408 1338.76L852.931 1303.04C860.825 1301.97 867.601 1296.88 870.841 1289.6L958.513 1092.69C961.754 1085.41 960.997 1076.98 956.513 1070.39L807.397 851.395C804.214 846.721 799.421 843.383 793.933 842.019L512.609 772.102C506.265 770.525 499.55 771.722 494.142 775.394L302.677 905.39Z" stroke="url(#paint41_linear_1202_5)" stroke-width="4"/>
<path opacity="0.623188" d="M293.684 891.69C286.26 896.212 282.02 904.534 282.725 913.198L301.311 1141.63C301.843 1148.16 305.134 1154.15 310.359 1158.1L538.089 1330.4C542.625 1333.83 548.271 1335.46 553.938 1334.97L814.454 1312.53C822.366 1311.85 829.367 1307.13 832.973 1300.06L930.088 1109.46C933.693 1102.38 933.393 1093.95 929.294 1087.14L794.318 863.196C791.382 858.324 786.745 854.714 781.303 853.061L508.059 770.094C501.79 768.191 495.006 769.052 489.41 772.46L293.684 891.69Z" stroke="url(#paint42_linear_1202_5)" stroke-width="4"/>
<path opacity="0.637681" d="M285.282 878.906C277.69 883.033 273.051 891.067 273.274 899.706L279.115 1126.57C279.284 1133.14 282.251 1139.32 287.268 1143.55L502.146 1325C506.518 1328.69 512.109 1330.62 517.828 1330.41L775.673 1320.96C783.584 1320.67 790.79 1316.33 794.748 1309.47L900.888 1125.63C904.846 1118.78 905 1110.37 901.296 1103.37L780.564 875.342C777.887 870.285 773.42 866.407 768.036 864.466L503.459 769.101C497.281 766.875 490.446 767.395 484.677 770.531L285.282 878.906Z" stroke="url(#paint43_linear_1202_5)" stroke-width="4"/>
<path opacity="0.652174" d="M277.412 867.061C269.673 870.786 264.654 878.514 264.398 887.1L257.712 1111.71C257.516 1118.29 260.148 1124.64 264.942 1129.14L466.643 1318.88C470.837 1322.83 476.358 1325.05 482.115 1325.13L736.653 1328.31C744.543 1328.41 751.933 1324.46 756.23 1317.84L870.958 1141.17C875.255 1134.56 875.86 1126.2 872.561 1119.03L766.122 887.794C763.714 882.564 759.433 878.427 754.123 876.2L498.752 769.109C492.682 766.564 485.813 766.742 479.882 769.596L277.412 867.061Z" stroke="url(#paint44_linear_1202_5)" stroke-width="4"/>
<path opacity="0.666667" d="M270.012 856.174C262.147 859.494 256.769 866.897 256.041 875.403L237.082 1097.07C236.52 1103.64 238.808 1110.14 243.364 1114.91L431.617 1312.06C435.618 1316.25 441.053 1318.77 446.836 1319.13L697.462 1334.59C705.311 1335.07 712.862 1331.51 717.485 1325.15L840.343 1156.05C844.965 1149.69 846.017 1141.41 843.131 1134.09L750.981 900.511C748.855 895.121 744.773 890.732 739.552 888.222L493.882 770.105C487.936 767.246 481.048 767.079 474.97 769.645L270.012 856.174Z" stroke="url(#paint45_linear_1202_5)" stroke-width="4"/>
<path opacity="0.681159" d="M263.019 846.259C255.052 849.171 249.334 856.232 248.142 864.631L217.204 1082.69C216.275 1089.24 218.21 1095.87 222.514 1100.89L397.104 1304.57C400.898 1308.99 406.232 1311.82 412.027 1312.46L658.162 1339.8C665.951 1340.66 673.644 1337.5 678.575 1331.41L809.091 1170.24C814.023 1164.15 815.514 1155.97 813.049 1148.53L735.135 913.454C733.3 907.92 729.432 903.289 724.313 900.498L488.79 772.069C482.984 768.903 476.096 768.389 469.884 770.659L263.019 846.259Z" stroke="url(#paint46_linear_1202_5)" stroke-width="4"/>
<path opacity="0.695652" d="M256.373 837.33C248.325 839.832 242.29 846.535 240.644 854.8L198.051 1068.62C196.756 1075.12 198.329 1081.87 202.367 1087.12L363.136 1296.44C366.711 1301.1 371.93 1304.21 377.723 1305.14L618.819 1343.94C626.528 1345.18 634.34 1342.42 639.565 1336.62L777.25 1183.7C782.475 1177.9 784.399 1169.84 782.36 1162.31L718.577 926.585C717.045 920.921 713.405 916.056 708.403 912.988L483.424 774.979C477.774 771.513 470.902 770.653 464.571 772.62L256.373 837.33Z" stroke="url(#paint47_linear_1202_5)" stroke-width="4"/>
<path opacity="0.710145" d="M250.013 829.392C241.906 831.483 235.575 837.814 233.484 845.921L179.599 1054.89C177.94 1061.32 179.146 1068.16 182.904 1073.64L329.746 1287.72C333.088 1292.59 338.176 1295.99 343.955 1297.21L579.496 1347.02C587.107 1348.63 595.016 1346.28 600.517 1340.78L744.87 1196.42C750.371 1190.92 752.719 1183.01 751.11 1175.4L701.307 939.863C700.085 934.084 696.685 928.996 691.814 925.654L477.73 778.812C472.25 775.053 465.413 773.848 458.978 775.507L250.013 829.392Z" stroke="url(#paint48_linear_1202_5)" stroke-width="4"/>
<path opacity="0.724638" d="M243.875 822.45C235.731 824.131 229.127 830.075 226.605 837.999L161.82 1041.52C159.8 1047.87 160.63 1054.78 164.097 1060.47L296.964 1278.44C300.059 1283.52 305.001 1287.2 310.753 1288.71L540.254 1349.05C547.75 1351.02 555.734 1349.09 561.493 1343.9L712 1208.38C717.76 1203.2 720.52 1195.46 719.344 1187.8L683.32 953.249C682.417 947.371 679.272 942.071 674.545 938.461L471.659 783.539C466.365 779.496 459.577 777.948 453.053 779.294L243.875 822.45Z" stroke="url(#paint49_linear_1202_5)" stroke-width="4"/>
<path opacity="0.73913" d="M237.897 816.504C229.738 817.776 222.887 823.323 219.947 831.04L144.684 1028.56C142.306 1034.8 142.758 1041.76 145.922 1047.65L264.813 1268.63C267.651 1273.9 272.434 1277.86 278.145 1279.67L501.156 1350.06C508.517 1352.39 516.554 1350.86 522.553 1346L678.691 1219.56C684.691 1214.71 687.853 1207.16 687.111 1199.48L664.62 966.705C664.044 960.744 661.165 955.242 656.596 951.37L465.16 789.131C460.066 784.814 453.346 782.924 446.748 783.952L237.897 816.504Z" stroke="url(#paint50_linear_1202_5)" stroke-width="4"/>
<path opacity="0.753623" d="M232.021 811.549C223.868 812.415 216.793 817.556 213.45 825.042L128.16 1016.03C125.431 1022.14 125.5 1029.14 128.349 1035.2L233.322 1258.34C235.89 1263.8 240.498 1268.03 246.154 1270.12L462.259 1350.06C469.47 1352.73 477.538 1351.62 483.758 1347.1L644.994 1229.95C651.215 1225.43 654.766 1218.1 654.457 1210.42L645.208 980.19C644.966 974.163 642.367 968.473 637.97 964.345L458.188 795.556C453.308 790.973 446.673 788.745 440.016 789.452L232.021 811.549Z" stroke="url(#paint51_linear_1202_5)" stroke-width="4"/>
<path opacity="0.768116" d="M226.185 807.58C218.06 808.045 210.786 812.769 207.057 820.002L112.218 1003.96C109.142 1009.92 108.826 1016.93 111.351 1023.15L202.51 1247.61C204.796 1253.23 209.216 1257.73 214.805 1260.11L423.623 1349.07C430.667 1352.08 438.743 1351.37 445.165 1347.2L610.961 1239.54C617.383 1235.36 621.308 1228.27 621.431 1220.62L625.092 993.666C625.19 987.592 622.881 981.726 618.669 977.348L450.697 802.776C446.043 797.94 439.51 795.377 432.809 795.761L226.185 807.58Z" stroke="url(#paint52_linear_1202_5)" stroke-width="4"/>
<path opacity="0.782609" d="M220.332 804.584C212.255 804.652 204.806 808.953 200.708 815.914L96.8209 992.367C93.4074 998.165 92.704 1005.17 94.8958 1011.53L172.398 1236.47C174.392 1242.26 178.61 1247.01 184.118 1249.68L385.301 1347.13C392.163 1350.45 400.226 1350.16 406.829 1346.35L576.642 1248.31C583.245 1244.49 587.529 1237.66 588.082 1230.05L604.277 1007.1C604.72 1000.99 602.714 994.965 598.699 990.345L442.646 810.755C438.232 805.676 431.817 802.784 425.089 802.841L220.332 804.584Z" stroke="url(#paint53_linear_1202_5)" stroke-width="4"/>
<path opacity="0.797101" d="M214.404 802.548C206.395 802.227 198.797 806.098 194.349 812.766L81.9385 981.284C78.1953 986.895 77.1039 993.867 78.9536 1000.35L143.004 1224.98C144.695 1230.91 148.697 1235.91 154.11 1238.86L347.35 1344.26C354.014 1347.89 362.042 1348 368.805 1344.56L542.089 1256.26C548.852 1252.82 553.479 1246.26 554.456 1238.73L582.774 1020.45C583.568 1014.33 581.873 1008.15 578.069 1003.3L433.994 819.452C429.833 814.143 423.551 810.928 416.811 810.658L214.404 802.548Z" stroke="url(#paint54_linear_1202_5)" stroke-width="4"/>
<path opacity="0.811594" d="M208.343 801.454C200.423 800.751 192.702 804.189 187.924 810.545L67.5335 970.729C63.4704 976.135 61.9922 983.055 63.4923 989.65L114.342 1213.17C115.72 1219.23 119.492 1224.47 124.798 1227.71L309.82 1340.48C316.272 1344.42 324.243 1344.93 331.146 1341.86L507.351 1263.41C514.254 1260.33 519.206 1254.06 520.601 1246.64L560.593 1033.68C561.74 1027.57 560.367 1021.26 556.787 1016.18L424.705 828.827C420.808 823.3 414.676 819.768 407.94 819.17L208.343 801.454Z" stroke="url(#paint55_linear_1202_5)" stroke-width="4"/>
<path opacity="0.826087" d="M202.098 801.281C194.285 800.205 186.464 803.207 181.378 809.235L53.5701 960.719C49.1978 965.901 47.335 972.749 48.479 979.432L86.4235 1201.09C87.4803 1207.26 91.0098 1212.74 96.1953 1216.25L272.759 1335.85C278.985 1340.07 286.88 1340.98 293.9 1338.28L472.48 1269.73C479.501 1267.04 484.76 1261.08 486.565 1253.78L537.749 1046.75C539.252 1040.67 538.21 1034.24 534.865 1028.95L414.745 838.835C411.124 833.103 405.157 829.261 398.441 828.335L202.098 801.281Z" stroke="url(#paint56_linear_1202_5)" stroke-width="4"/>
<path opacity="0.84058" d="M195.613 802.008C187.926 800.567 180.034 803.131 174.662 808.815L40.0127 951.27C35.3431 956.21 33.0982 962.964 33.8805 969.716L59.2591 1188.78C59.9857 1195.05 63.2594 1200.75 68.3116 1204.54L236.214 1330.4C242.202 1334.89 250 1336.18 257.117 1333.87L437.524 1275.25C444.642 1272.94 450.189 1267.31 452.395 1260.16L514.253 1059.64C516.114 1053.61 515.414 1047.08 512.315 1041.58L404.083 849.43C400.747 843.507 394.961 839.363 388.28 838.111L195.613 802.008Z" stroke="url(#paint57_linear_1202_5)" stroke-width="4"/>
<path opacity="0.855072" d="M188.84 803.604C181.297 801.81 173.357 803.937 167.721 809.262L26.8244 942.397C21.8705 947.077 19.2472 953.715 19.6631 960.518L32.8548 1176.29C33.2433 1182.65 36.2487 1188.56 41.1548 1192.61L200.229 1324.16C205.967 1328.91 213.647 1330.58 220.839 1328.65L402.533 1279.97C409.725 1278.04 415.539 1272.75 418.136 1265.77L490.125 1072.31C492.346 1066.35 491.994 1059.73 489.153 1054.03L392.69 860.566C389.648 854.466 384.058 850.03 377.427 848.453L188.84 803.604Z" stroke="url(#paint58_linear_1202_5)" stroke-width="4"/>
<path opacity="0.869565" d="M181.728 806.043C174.346 803.907 166.386 805.599 160.511 810.553L13.9675 934.111C8.74306 938.515 5.74736 945.016 5.79328 951.849L7.21599 1163.67C7.25911 1170.09 9.98425 1176.2 14.7319 1180.52L164.844 1317.18C170.322 1322.17 177.865 1324.21 185.11 1322.67L367.554 1283.89C374.799 1282.35 380.859 1277.42 383.835 1270.64L465.383 1084.73C467.962 1078.85 467.966 1072.16 465.394 1066.28L380.54 872.194C377.803 865.933 372.422 861.213 365.858 859.314L181.728 806.043Z" stroke="url(#paint59_linear_1202_5)" stroke-width="4"/>
<path opacity="0.884058" d="M174.234 809.29C167.03 806.825 159.072 808.086 152.981 812.656L1.40489 926.419C-4.075 930.532 -7.43685 936.874 -7.76361 943.718L-17.6545 1150.94C-17.9633 1157.41 -15.5311 1163.71 -10.9544 1168.3L130.099 1309.51C135.305 1314.72 142.694 1317.13 149.97 1315.98L332.632 1287.04C339.909 1285.89 346.193 1281.32 349.534 1274.76L440.045 1096.86C442.982 1091.09 443.348 1084.35 441.055 1078.29L367.612 884.264C365.186 877.856 360.029 872.864 353.547 870.645L174.234 809.29Z" stroke="url(#paint60_linear_1202_5)" stroke-width="4"/>
<path opacity="0.898551" d="M166.312 813.313C159.3 810.531 151.371 811.365 145.091 815.543L-10.9013 919.331C-16.6209 923.137 -20.3405 929.3 -21.0414 936.134L-41.7595 1138.17C-42.426 1144.67 -40.2964 1151.15 -35.9025 1155.99L96.0276 1301.19C100.954 1306.62 108.169 1309.37 115.454 1308.6L297.813 1289.43C305.099 1288.67 311.584 1284.48 315.275 1278.15L414.132 1108.69C417.425 1103.04 418.161 1096.27 416.158 1090.05L353.886 896.727C351.779 890.188 346.859 884.933 340.474 882.4L166.312 813.313Z" stroke="url(#paint61_linear_1202_5)" stroke-width="4"/>
<path opacity="0.913043" d="M157.922 818.072C151.118 814.988 143.239 815.401 136.795 819.179L-22.9885 912.85C-28.9307 916.334 -32.9987 922.298 -34.0741 929.101L-65.101 1125.4C-66.1303 1131.91 -64.3153 1138.55 -60.1162 1143.64L62.6602 1292.27C67.2987 1297.89 74.3236 1300.98 81.5972 1300.6L263.139 1291.08C270.413 1290.7 277.076 1286.9 281.103 1280.83L387.67 1120.17C391.314 1114.68 392.425 1107.88 390.721 1101.51L339.345 909.531C337.564 902.877 332.895 897.371 326.622 894.528L157.922 818.072Z" stroke="url(#paint62_linear_1202_5)" stroke-width="4"/>
<path opacity="0.927536" d="M149.025 823.53C142.442 820.159 134.639 820.159 128.056 823.53L-34.8919 906.98C-41.0392 910.128 -45.4474 915.872 -46.8968 922.624L-87.6848 1112.66C-89.0815 1119.17 -87.59 1125.96 -83.597 1131.29L30.0271 1282.81C34.3707 1288.6 41.1886 1292.01 48.4284 1292.01L228.653 1292.01C235.893 1292.01 242.711 1288.6 247.054 1282.81L360.678 1131.29C364.672 1125.96 366.163 1119.17 364.766 1112.66L323.978 922.624C322.529 915.872 318.121 910.128 311.973 906.98L149.025 823.53Z" stroke="url(#paint63_linear_1202_5)" stroke-width="4"/>
<path opacity="0.942029" d="M139.585 829.646C133.237 826.003 125.533 825.599 118.838 828.559L-46.6511 901.718C-52.9848 904.518 -57.7194 910.024 -59.541 916.705L-109.518 1100.01C-111.286 1106.49 -110.129 1113.42 -106.354 1118.98L-1.84676 1272.84C2.1958 1278.79 8.79042 1282.51 15.9752 1282.89L194.394 1292.24C201.579 1292.61 208.526 1289.61 213.169 1284.11L333.186 1142.02C337.522 1136.88 339.397 1130.11 338.316 1123.48L307.773 935.955C306.66 929.12 302.527 923.15 296.521 919.703L139.585 829.646Z" stroke="url(#paint64_linear_1202_5)" stroke-width="4"/>
<path opacity="0.956522" d="M129.571 836.376C123.468 832.477 115.885 831.68 109.105 834.225L-58.3005 897.066C-64.801 899.506 -69.8518 904.752 -72.0427 911.341L-130.612 1087.48C-132.753 1093.92 -131.941 1100.97 -128.394 1106.76L-32.9405 1262.43C-29.2039 1268.52 -22.8463 1272.53 -15.7373 1273.28L160.4 1291.79C167.509 1292.54 174.561 1289.94 179.483 1284.76L305.217 1152.33C309.89 1147.41 312.15 1140.68 311.395 1133.93L290.727 949.47C289.953 942.569 286.104 936.387 280.253 932.649L129.571 836.376Z" stroke="url(#paint65_linear_1202_5)" stroke-width="4"/>
<path opacity="0.971014" d="M118.952 843.677C113.105 839.538 105.665 838.359 98.8258 840.488L-69.8755 893.016C-76.523 895.086 -81.8754 900.055 -84.4317 906.531L-150.978 1075.11C-153.495 1081.49 -153.037 1088.65 -149.729 1094.66L-63.2347 1251.63C-59.8082 1257.85 -53.7018 1262.13 -46.6892 1263.24L126.706 1290.71C133.719 1291.82 140.851 1289.63 146.032 1284.77L276.8 1162.21C281.801 1157.53 284.45 1150.85 284.027 1144.01L272.832 963.116C272.402 956.167 268.847 949.787 263.164 945.764L118.952 843.677Z" stroke="url(#paint66_linear_1202_5)" stroke-width="4"/>
<path opacity="0.985507" d="M107.702 851.501C102.122 847.14 94.8439 845.593 87.9727 847.307L-81.413 889.564C-88.1861 891.254 -93.8258 895.928 -96.7424 902.271L-170.634 1062.95C-173.527 1069.24 -173.431 1076.51 -170.373 1082.72L-92.7155 1240.49C-89.6017 1246.81 -83.7581 1251.36 -76.8615 1252.83L93.3457 1289.01C100.242 1290.47 107.431 1288.69 112.848 1284.18L247.961 1171.64C253.283 1167.21 256.324 1160.61 256.24 1153.69L254.092 976.843C254.007 969.863 250.756 963.298 245.256 959L107.702 851.501Z" stroke="url(#paint67_linear_1202_5)" stroke-width="4"/>
<path d="M95.7976 859.803C90.4922 855.237 83.3961 853.336 76.5187 854.637L-92.9451 886.701C-99.8225 888.002 -105.734 892.365 -109.004 898.553L-189.594 1051.04C-192.864 1057.23 -193.139 1064.57 -190.34 1070.98L-121.371 1229.06C-118.572 1235.48 -113.003 1240.27 -106.242 1242.08L60.3515 1286.72C67.1124 1288.53 74.3306 1287.17 79.9623 1283.01L218.732 1180.59C224.363 1176.44 227.796 1169.94 228.058 1162.95L234.507 990.597C234.769 983.602 231.831 976.869 226.525 972.303L95.7976 859.803Z" stroke="url(#paint68_linear_1202_5)" stroke-width="4"/>
<g opacity="0.2" filter="url(#filter0_f_1202_5)">
<circle cx="1400" cy="1030" r="247" fill="#FC4FF6"/>
</g>
<g opacity="0.2" filter="url(#filter1_f_1202_5)">
<circle cx="282" cy="1019" r="247" fill="#899AFF"/>
</g>
<g opacity="0.2" filter="url(#filter2_f_1202_5)">
<circle cx="874" cy="839" r="213" fill="#485DFF"/>
</g>
<defs>
<filter id="filter0_f_1202_5" x="953" y="583" width="894" height="894" filterUnits="userSpaceOnUse" color-interpolation-filters="sRGB">
<feFlood flood-opacity="0" result="BackgroundImageFix"/>
<feBlend mode="normal" in="SourceGraphic" in2="BackgroundImageFix" result="shape"/>
<feGaussianBlur stdDeviation="100" result="effect1_foregroundBlur_1202_5"/>
</filter>
<filter id="filter1_f_1202_5" x="-165" y="572" width="894" height="894" filterUnits="userSpaceOnUse" color-interpolation-filters="sRGB">
<feFlood flood-opacity="0" result="BackgroundImageFix"/>
<feBlend mode="normal" in="SourceGraphic" in2="BackgroundImageFix" result="shape"/>
<feGaussianBlur stdDeviation="100" result="effect1_foregroundBlur_1202_5"/>
</filter>
<filter id="filter2_f_1202_5" x="411" y="376" width="926" height="926" filterUnits="userSpaceOnUse" color-interpolation-filters="sRGB">
<feFlood flood-opacity="0" result="BackgroundImageFix"/>
<feBlend mode="normal" in="SourceGraphic" in2="BackgroundImageFix" result="shape"/>
<feGaussianBlur stdDeviation="125" result="effect1_foregroundBlur_1202_5"/>
</filter>
<linearGradient id="paint0_linear_1202_5" x1="1602.91" y1="1604.24" x2="1419.03" y2="443.222" gradientUnits="userSpaceOnUse">
<stop stop-color="#FF1CF7"/>
<stop offset="1" stop-color="#00F0FF"/>
</linearGradient>
<linearGradient id="paint1_linear_1202_5" x1="1551.15" y1="1603.5" x2="1429.36" y2="444.766" gradientUnits="userSpaceOnUse">
<stop stop-color="#FF1CF7"/>
<stop offset="1" stop-color="#00F0FF"/>
</linearGradient>
<linearGradient id="paint2_linear_1202_5" x1="1499.74" y1="1601.17" x2="1439.31" y2="448.015" gradientUnits="userSpaceOnUse">
<stop stop-color="#FF1CF7"/>
<stop offset="1" stop-color="#00F0FF"/>
</linearGradient>
<linearGradient id="paint3_linear_1202_5" x1="1448.78" y1="1597.29" x2="1448.78" y2="452.93" gradientUnits="userSpaceOnUse">
<stop stop-color="#FF1CF7"/>
<stop offset="1" stop-color="#00F0FF"/>
</linearGradient>
<linearGradient id="paint4_linear_1202_5" x1="1398.34" y1="1591.9" x2="1457.69" y2="459.471" gradientUnits="userSpaceOnUse">
<stop stop-color="#FF1CF7"/>
<stop offset="1" stop-color="#00F0FF"/>
</linearGradient>
<linearGradient id="paint5_linear_1202_5" x1="1348.51" y1="1585.05" x2="1465.95" y2="467.59" gradientUnits="userSpaceOnUse">
<stop stop-color="#FF1CF7"/>
<stop offset="1" stop-color="#00F0FF"/>
</linearGradient>
<linearGradient id="paint6_linear_1202_5" x1="1299.34" y1="1576.77" x2="1473.49" y2="477.237" gradientUnits="userSpaceOnUse">
<stop stop-color="#FF1CF7"/>
<stop offset="1" stop-color="#00F0FF"/>
</linearGradient>
<linearGradient id="paint7_linear_1202_5" x1="1250.93" y1="1567.12" x2="1480.23" y2="488.358" gradientUnits="userSpaceOnUse">
<stop stop-color="#FF1CF7"/>
<stop offset="1" stop-color="#00F0FF"/>
</linearGradient>
<linearGradient id="paint8_linear_1202_5" x1="1203.33" y1="1556.15" x2="1486.08" y2="500.893" gradientUnits="userSpaceOnUse">
<stop stop-color="#FF1CF7"/>
<stop offset="1" stop-color="#00F0FF"/>
</linearGradient>
<linearGradient id="paint9_linear_1202_5" x1="1156.61" y1="1543.93" x2="1491" y2="514.781" gradientUnits="userSpaceOnUse">
<stop stop-color="#FF1CF7"/>
<stop offset="1" stop-color="#00F0FF"/>
</linearGradient>
<linearGradient id="paint10_linear_1202_5" x1="1110.82" y1="1530.51" x2="1494.9" y2="529.957" gradientUnits="userSpaceOnUse">
<stop stop-color="#FF1CF7"/>
<stop offset="1" stop-color="#00F0FF"/>
</linearGradient>
<linearGradient id="paint11_linear_1202_5" x1="1066.04" y1="1515.95" x2="1497.73" y2="546.351" gradientUnits="userSpaceOnUse">
<stop stop-color="#FF1CF7"/>
<stop offset="1" stop-color="#00F0FF"/>
</linearGradient>
<linearGradient id="paint12_linear_1202_5" x1="1022.3" y1="1500.33" x2="1499.44" y2="563.894" gradientUnits="userSpaceOnUse">
<stop stop-color="#FF1CF7"/>
<stop offset="1" stop-color="#00F0FF"/>
</linearGradient>
<linearGradient id="paint13_linear_1202_5" x1="979.659" y1="1483.71" x2="1499.96" y2="582.511" gradientUnits="userSpaceOnUse">
<stop stop-color="#FF1CF7"/>
<stop offset="1" stop-color="#00F0FF"/>
</linearGradient>
<linearGradient id="paint14_linear_1202_5" x1="938.158" y1="1466.16" x2="1499.27" y2="602.127" gradientUnits="userSpaceOnUse">
<stop stop-color="#FF1CF7"/>
<stop offset="1" stop-color="#00F0FF"/>
</linearGradient>
<linearGradient id="paint15_linear_1202_5" x1="897.837" y1="1447.75" x2="1497.3" y2="622.663" gradientUnits="userSpaceOnUse">
<stop stop-color="#FF1CF7"/>
<stop offset="1" stop-color="#00F0FF"/>
</linearGradient>
<linearGradient id="paint16_linear_1202_5" x1="858.732" y1="1428.56" x2="1494.02" y2="644.04" gradientUnits="userSpaceOnUse">
<stop stop-color="#FF1CF7"/>
<stop offset="1" stop-color="#00F0FF"/>
</linearGradient>
<linearGradient id="paint17_linear_1202_5" x1="820.873" y1="1408.66" x2="1489.41" y2="666.177" gradientUnits="userSpaceOnUse">
<stop stop-color="#FF1CF7"/>
<stop offset="1" stop-color="#00F0FF"/>
</linearGradient>
<linearGradient id="paint18_linear_1202_5" x1="784.285" y1="1388.13" x2="1483.43" y2="688.992" gradientUnits="userSpaceOnUse">
<stop stop-color="#FF1CF7"/>
<stop offset="1" stop-color="#00F0FF"/>
</linearGradient>
<linearGradient id="paint19_linear_1202_5" x1="748.991" y1="1367.05" x2="1476.06" y2="712.401" gradientUnits="userSpaceOnUse">
<stop stop-color="#FF1CF7"/>
<stop offset="1" stop-color="#00F0FF"/>
</linearGradient>
<linearGradient id="paint20_linear_1202_5" x1="715.009" y1="1345.5" x2="1467.28" y2="736.323" gradientUnits="userSpaceOnUse">
<stop stop-color="#FF1CF7"/>
<stop offset="1" stop-color="#00F0FF"/>
</linearGradient>
<linearGradient id="paint21_linear_1202_5" x1="682.348" y1="1323.54" x2="1457.07" y2="760.672" gradientUnits="userSpaceOnUse">
<stop stop-color="#FF1CF7"/>
<stop offset="1" stop-color="#00F0FF"/>
</linearGradient>
<linearGradient id="paint22_linear_1202_5" x1="651.019" y1="1301.27" x2="1445.44" y2="785.365" gradientUnits="userSpaceOnUse">
<stop stop-color="#FF1CF7"/>
<stop offset="1" stop-color="#00F0FF"/>
</linearGradient>
<linearGradient id="paint23_linear_1202_5" x1="621.025" y1="1278.75" x2="1432.37" y2="810.319" gradientUnits="userSpaceOnUse">
<stop stop-color="#FF1CF7"/>
<stop offset="1" stop-color="#00F0FF"/>
</linearGradient>
<linearGradient id="paint24_linear_1202_5" x1="592.363" y1="1256.07" x2="1417.87" y2="835.451" gradientUnits="userSpaceOnUse">
<stop stop-color="#FF1CF7"/>
<stop offset="1" stop-color="#00F0FF"/>
</linearGradient>
<linearGradient id="paint25_linear_1202_5" x1="565.03" y1="1233.29" x2="1401.94" y2="860.679" gradientUnits="userSpaceOnUse">
<stop stop-color="#FF1CF7"/>
<stop offset="1" stop-color="#00F0FF"/>
</linearGradient>
<linearGradient id="paint26_linear_1202_5" x1="539.015" y1="1210.51" x2="1384.59" y2="885.921" gradientUnits="userSpaceOnUse">
<stop stop-color="#FF1CF7"/>
<stop offset="1" stop-color="#00F0FF"/>
</linearGradient>
<linearGradient id="paint27_linear_1202_5" x1="514.305" y1="1187.78" x2="1365.84" y2="911.1" gradientUnits="userSpaceOnUse">
<stop stop-color="#FF1CF7"/>
<stop offset="1" stop-color="#00F0FF"/>
</linearGradient>
<linearGradient id="paint28_linear_1202_5" x1="490.881" y1="1165.19" x2="1345.71" y2="936.137" gradientUnits="userSpaceOnUse">
<stop stop-color="#FF1CF7"/>
<stop offset="1" stop-color="#00F0FF"/>
</linearGradient>
<linearGradient id="paint29_linear_1202_5" x1="468.722" y1="1142.8" x2="1324.22" y2="960.955" gradientUnits="userSpaceOnUse">
<stop stop-color="#FF1CF7"/>
<stop offset="1" stop-color="#00F0FF"/>
</linearGradient>
<linearGradient id="paint30_linear_1202_5" x1="447.801" y1="1120.68" x2="1301.4" y2="985.481" gradientUnits="userSpaceOnUse">
<stop stop-color="#FF1CF7"/>
<stop offset="1" stop-color="#00F0FF"/>
</linearGradient>
<linearGradient id="paint31_linear_1202_5" x1="428.09" y1="1098.9" x2="1277.28" y2="1009.64" gradientUnits="userSpaceOnUse">
<stop stop-color="#FF1CF7"/>
<stop offset="1" stop-color="#00F0FF"/>
</linearGradient>
<linearGradient id="paint32_linear_1202_5" x1="409.556" y1="1077.52" x2="1251.89" y2="1033.37" gradientUnits="userSpaceOnUse">
<stop stop-color="#FF1CF7"/>
<stop offset="1" stop-color="#00F0FF"/>
</linearGradient>
<linearGradient id="paint33_linear_1202_5" x1="392.161" y1="1056.6" x2="1225.27" y2="1056.6" gradientUnits="userSpaceOnUse">
<stop stop-color="#FF1CF7"/>
<stop offset="1" stop-color="#00F0FF"/>
</linearGradient>
<linearGradient id="paint34_linear_1202_5" x1="375.867" y1="1036.21" x2="1197.48" y2="1079.27" gradientUnits="userSpaceOnUse">
<stop stop-color="#FF1CF7"/>
<stop offset="1" stop-color="#00F0FF"/>
</linearGradient>
<linearGradient id="paint35_linear_1202_5" x1="360.631" y1="1016.4" x2="1168.54" y2="1101.32" gradientUnits="userSpaceOnUse">
<stop stop-color="#FF1CF7"/>
<stop offset="1" stop-color="#00F0FF"/>
</linearGradient>
<linearGradient id="paint36_linear_1202_5" x1="346.408" y1="997.223" x2="1138.52" y2="1122.68" gradientUnits="userSpaceOnUse">
<stop stop-color="#FF1CF7"/>
<stop offset="1" stop-color="#00F0FF"/>
</linearGradient>
<linearGradient id="paint37_linear_1202_5" x1="333.149" y1="978.727" x2="1107.46" y2="1143.31" gradientUnits="userSpaceOnUse">
<stop stop-color="#FF1CF7"/>
<stop offset="1" stop-color="#00F0FF"/>
</linearGradient>
<linearGradient id="paint38_linear_1202_5" x1="320.804" y1="960.96" x2="1075.42" y2="1163.16" gradientUnits="userSpaceOnUse">
<stop stop-color="#FF1CF7"/>
<stop offset="1" stop-color="#00F0FF"/>
</linearGradient>
<linearGradient id="paint39_linear_1202_5" x1="309.32" y1="943.966" x2="1042.45" y2="1182.18" gradientUnits="userSpaceOnUse">
<stop stop-color="#FF1CF7"/>
<stop offset="1" stop-color="#00F0FF"/>
</linearGradient>
<linearGradient id="paint40_linear_1202_5" x1="298.643" y1="927.784" x2="1008.62" y2="1200.32" gradientUnits="userSpaceOnUse">
<stop stop-color="#FF1CF7"/>
<stop offset="1" stop-color="#00F0FF"/>
</linearGradient>
<linearGradient id="paint41_linear_1202_5" x1="288.716" y1="912.451" x2="973.978" y2="1217.55" gradientUnits="userSpaceOnUse">
<stop stop-color="#FF1CF7"/>
<stop offset="1" stop-color="#00F0FF"/>
</linearGradient>
<linearGradient id="paint42_linear_1202_5" x1="279.481" y1="897.999" x2="938.592" y2="1233.83" gradientUnits="userSpaceOnUse">
<stop stop-color="#FF1CF7"/>
<stop offset="1" stop-color="#00F0FF"/>
</linearGradient>
<linearGradient id="paint43_linear_1202_5" x1="270.88" y1="884.457" x2="902.526" y2="1249.14" gradientUnits="userSpaceOnUse">
<stop stop-color="#FF1CF7"/>
<stop offset="1" stop-color="#00F0FF"/>
</linearGradient>
<linearGradient id="paint44_linear_1202_5" x1="262.851" y1="871.85" x2="865.845" y2="1263.44" gradientUnits="userSpaceOnUse">
<stop stop-color="#FF1CF7"/>
<stop offset="1" stop-color="#00F0FF"/>
</linearGradient>
<linearGradient id="paint45_linear_1202_5" x1="255.334" y1="860.199" x2="828.613" y2="1276.71" gradientUnits="userSpaceOnUse">
<stop stop-color="#FF1CF7"/>
<stop offset="1" stop-color="#00F0FF"/>
</linearGradient>
<linearGradient id="paint46_linear_1202_5" x1="248.266" y1="849.522" x2="790.899" y2="1288.94" gradientUnits="userSpaceOnUse">
<stop stop-color="#FF1CF7"/>
<stop offset="1" stop-color="#00F0FF"/>
</linearGradient>
<linearGradient id="paint47_linear_1202_5" x1="241.586" y1="839.832" x2="752.767" y2="1300.1" gradientUnits="userSpaceOnUse">
<stop stop-color="#FF1CF7"/>
<stop offset="1" stop-color="#00F0FF"/>
</linearGradient>
<linearGradient id="paint48_linear_1202_5" x1="235.231" y1="831.139" x2="714.287" y2="1310.19" gradientUnits="userSpaceOnUse">
<stop stop-color="#FF1CF7"/>
<stop offset="1" stop-color="#00F0FF"/>
</linearGradient>
<linearGradient id="paint49_linear_1202_5" x1="229.138" y1="823.448" x2="675.524" y2="1319.21" gradientUnits="userSpaceOnUse">
<stop stop-color="#FF1CF7"/>
<stop offset="1" stop-color="#00F0FF"/>
</linearGradient>
<linearGradient id="paint50_linear_1202_5" x1="223.246" y1="816.763" x2="636.545" y2="1327.14" gradientUnits="userSpaceOnUse">
<stop stop-color="#FF1CF7"/>
<stop offset="1" stop-color="#00F0FF"/>
</linearGradient>
<linearGradient id="paint51_linear_1202_5" x1="217.494" y1="811.081" x2="597.416" y2="1334" gradientUnits="userSpaceOnUse">
<stop stop-color="#FF1CF7"/>
<stop offset="1" stop-color="#00F0FF"/>
</linearGradient>
<linearGradient id="paint52_linear_1202_5" x1="211.82" y1="806.398" x2="558.203" y2="1339.78" gradientUnits="userSpaceOnUse">
<stop stop-color="#FF1CF7"/>
<stop offset="1" stop-color="#00F0FF"/>
</linearGradient>
<linearGradient id="paint53_linear_1202_5" x1="206.164" y1="802.704" x2="518.97" y2="1344.5" gradientUnits="userSpaceOnUse">
<stop stop-color="#FF1CF7"/>
<stop offset="1" stop-color="#00F0FF"/>
</linearGradient>
<linearGradient id="paint54_linear_1202_5" x1="200.469" y1="799.988" x2="479.781" y2="1348.17" gradientUnits="userSpaceOnUse">
<stop stop-color="#FF1CF7"/>
<stop offset="1" stop-color="#00F0FF"/>
</linearGradient>
<linearGradient id="paint55_linear_1202_5" x1="194.676" y1="798.233" x2="440.696" y2="1350.8" gradientUnits="userSpaceOnUse">
<stop stop-color="#FF1CF7"/>
<stop offset="1" stop-color="#00F0FF"/>
</linearGradient>
<linearGradient id="paint56_linear_1202_5" x1="188.73" y1="797.421" x2="401.775" y2="1352.42" gradientUnits="userSpaceOnUse">
<stop stop-color="#FF1CF7"/>
<stop offset="1" stop-color="#00F0FF"/>
</linearGradient>
<linearGradient id="paint57_linear_1202_5" x1="182.577" y1="797.53" x2="363.077" y2="1353.05" gradientUnits="userSpaceOnUse">
<stop stop-color="#FF1CF7"/>
<stop offset="1" stop-color="#00F0FF"/>
</linearGradient>
<linearGradient id="paint58_linear_1202_5" x1="176.164" y1="798.534" x2="324.658" y2="1352.72" gradientUnits="userSpaceOnUse">
<stop stop-color="#FF1CF7"/>
<stop offset="1" stop-color="#00F0FF"/>
</linearGradient>
<linearGradient id="paint59_linear_1202_5" x1="169.442" y1="800.406" x2="286.572" y2="1351.46" gradientUnits="userSpaceOnUse">
<stop stop-color="#FF1CF7"/>
<stop offset="1" stop-color="#00F0FF"/>
</linearGradient>
<linearGradient id="paint60_linear_1202_5" x1="162.363" y1="803.114" x2="248.869" y2="1349.29" gradientUnits="userSpaceOnUse">
<stop stop-color="#FF1CF7"/>
<stop offset="1" stop-color="#00F0FF"/>
</linearGradient>
<linearGradient id="paint61_linear_1202_5" x1="154.881" y1="806.626" x2="211.6" y2="1346.27" gradientUnits="userSpaceOnUse">
<stop stop-color="#FF1CF7"/>
<stop offset="1" stop-color="#00F0FF"/>
</linearGradient>
<linearGradient id="paint62_linear_1202_5" x1="146.954" y1="810.905" x2="174.809" y2="1342.41" gradientUnits="userSpaceOnUse">
<stop stop-color="#FF1CF7"/>
<stop offset="1" stop-color="#00F0FF"/>
</linearGradient>
<linearGradient id="paint63_linear_1202_5" x1="138.541" y1="815.914" x2="138.541" y2="1337.78" gradientUnits="userSpaceOnUse">
<stop stop-color="#FF1CF7"/>
<stop offset="1" stop-color="#00F0FF"/>
</linearGradient>
<linearGradient id="paint64_linear_1202_5" x1="129.604" y1="821.612" x2="102.835" y2="1332.4" gradientUnits="userSpaceOnUse">
<stop stop-color="#FF1CF7"/>
<stop offset="1" stop-color="#00F0FF"/>
</linearGradient>
<linearGradient id="paint65_linear_1202_5" x1="120.11" y1="827.958" x2="67.7291" y2="1326.33" gradientUnits="userSpaceOnUse">
<stop stop-color="#FF1CF7"/>
<stop offset="1" stop-color="#00F0FF"/>
</linearGradient>
<linearGradient id="paint66_linear_1202_5" x1="110.025" y1="834.907" x2="33.257" y2="1319.6" gradientUnits="userSpaceOnUse">
<stop stop-color="#FF1CF7"/>
<stop offset="1" stop-color="#00F0FF"/>
</linearGradient>
<linearGradient id="paint67_linear_1202_5" x1="99.3229" y1="842.415" x2="-0.550114" y2="1312.28" gradientUnits="userSpaceOnUse">
<stop stop-color="#FF1CF7"/>
<stop offset="1" stop-color="#00F0FF"/>
</linearGradient>
<linearGradient id="paint68_linear_1202_5" x1="87.9764" y1="850.434" x2="-33.6653" y2="1304.41" gradientUnits="userSpaceOnUse">
<stop stop-color="#FF1CF7"/>
<stop offset="1" stop-color="#00F0FF"/>
</linearGradient>
</defs>
</svg>
