<svg width="78" height="25" viewBox="0 0 78 25" fill="none" xmlns="http://www.w3.org/2000/svg">
<path d="M0.917614 19V1.54545H7.30966C8.5483 1.54545 9.57386 1.75 10.3864 2.15909C11.1989 2.5625 11.8068 3.1108 12.2102 3.80398C12.6136 4.49148 12.8153 5.26705 12.8153 6.13068C12.8153 6.85795 12.6818 7.47159 12.4148 7.97159C12.1477 8.46591 11.7898 8.86364 11.3409 9.16477C10.8977 9.46023 10.4091 9.67614 9.875 9.8125V9.98295C10.4545 10.0114 11.0199 10.1989 11.571 10.5455C12.1278 10.8864 12.5881 11.3722 12.9517 12.0028C13.3153 12.6335 13.4972 13.4006 13.4972 14.304C13.4972 15.196 13.2869 15.9972 12.8665 16.7074C12.4517 17.4119 11.8097 17.9716 10.9403 18.3864C10.071 18.7955 8.96023 19 7.60795 19H0.917614ZM3.55114 16.7415H7.35227C8.61364 16.7415 9.51705 16.4972 10.0625 16.0085C10.608 15.5199 10.8807 14.9091 10.8807 14.1761C10.8807 13.625 10.7415 13.1193 10.4631 12.6591C10.1847 12.1989 9.78693 11.8324 9.26989 11.5597C8.75852 11.2869 8.15057 11.1506 7.44602 11.1506H3.55114V16.7415ZM3.55114 9.09659H7.07955C7.67045 9.09659 8.2017 8.98295 8.6733 8.75568C9.15057 8.52841 9.52841 8.21023 9.80682 7.80114C10.0909 7.38636 10.233 6.89773 10.233 6.33523C10.233 5.61364 9.98011 5.00852 9.47443 4.51989C8.96875 4.03125 8.19318 3.78693 7.14773 3.78693H3.55114V9.09659ZM16.4162 19V5.90909H18.9645V19H16.4162ZM17.7031 3.8892C17.2599 3.8892 16.8793 3.74148 16.5611 3.44602C16.2486 3.14489 16.0923 2.78693 16.0923 2.37216C16.0923 1.9517 16.2486 1.59375 16.5611 1.29829C16.8793 0.997159 17.2599 0.846591 17.7031 0.846591C18.1463 0.846591 18.5241 0.997159 18.8366 1.29829C19.1548 1.59375 19.3139 1.9517 19.3139 2.37216C19.3139 2.78693 19.1548 3.14489 18.8366 3.44602C18.5241 3.74148 18.1463 3.8892 17.7031 3.8892ZM27.8814 24.1818C26.8416 24.1818 25.9467 24.0455 25.1967 23.7727C24.4524 23.5 23.8445 23.1392 23.3729 22.6903C22.9013 22.2415 22.549 21.75 22.3161 21.2159L24.5064 20.3125C24.6598 20.5625 24.8643 20.8267 25.12 21.1051C25.3814 21.3892 25.7337 21.6307 26.1768 21.8295C26.6257 22.0284 27.2024 22.1278 27.907 22.1278C28.8729 22.1278 29.6712 21.892 30.3018 21.4205C30.9325 20.9545 31.2479 20.2102 31.2479 19.1875V16.6136H31.0859C30.9325 16.892 30.7109 17.2017 30.4212 17.5426C30.1371 17.8835 29.745 18.179 29.245 18.429C28.745 18.679 28.0945 18.804 27.2933 18.804C26.2592 18.804 25.3274 18.5625 24.4979 18.0795C23.674 17.5909 23.0206 16.8722 22.5376 15.9233C22.0604 14.9687 21.8217 13.7955 21.8217 12.4034C21.8217 11.0114 22.0575 9.81818 22.5291 8.82386C23.0064 7.82955 23.6598 7.06818 24.4893 6.53977C25.3189 6.00568 26.2592 5.73864 27.3104 5.73864C28.1229 5.73864 28.7791 5.875 29.2791 6.14773C29.7791 6.41477 30.1683 6.72727 30.4467 7.08523C30.7308 7.44318 30.9496 7.75852 31.103 8.03125H31.2905V5.90909H33.7876V19.2898C33.7876 20.4148 33.5263 21.3381 33.0036 22.0597C32.4808 22.7813 31.7734 23.3153 30.8814 23.6619C29.995 24.0085 28.995 24.1818 27.8814 24.1818ZM27.8558 16.6903C28.5888 16.6903 29.2081 16.5199 29.7138 16.179C30.2251 15.8324 30.6115 15.3381 30.8729 14.696C31.1399 14.0483 31.2734 13.2727 31.2734 12.3693C31.2734 11.4886 31.1428 10.7131 30.8814 10.0426C30.62 9.37216 30.2365 8.84943 29.7308 8.47443C29.2251 8.09375 28.6001 7.90341 27.8558 7.90341C27.0888 7.90341 26.4496 8.10227 25.9382 8.5C25.4268 8.89205 25.0405 9.42614 24.7791 10.1023C24.5234 10.7784 24.3956 11.5341 24.3956 12.3693C24.3956 13.2273 24.5263 13.9801 24.7876 14.6278C25.049 15.2756 25.4354 15.7812 25.9467 16.1449C26.4638 16.5085 27.1001 16.6903 27.8558 16.6903ZM42.7195 19.2642C41.4922 19.2642 40.4212 18.983 39.5064 18.4205C38.5916 17.858 37.8814 17.071 37.3757 16.0597C36.87 15.0483 36.6172 13.8665 36.6172 12.5142C36.6172 11.1562 36.87 9.96875 37.3757 8.9517C37.8814 7.93466 38.5916 7.14489 39.5064 6.58239C40.4212 6.01989 41.4922 5.73864 42.7195 5.73864C43.9467 5.73864 45.0178 6.01989 45.9325 6.58239C46.8473 7.14489 47.5575 7.93466 48.0632 8.9517C48.5689 9.96875 48.8217 11.1562 48.8217 12.5142C48.8217 13.8665 48.5689 15.0483 48.0632 16.0597C47.5575 17.071 46.8473 17.858 45.9325 18.4205C45.0178 18.983 43.9467 19.2642 42.7195 19.2642ZM42.728 17.125C43.5234 17.125 44.1825 16.9148 44.7053 16.4943C45.228 16.0739 45.6143 15.5142 45.8643 14.8153C46.12 14.1165 46.2479 13.3466 46.2479 12.5057C46.2479 11.6705 46.12 10.9034 45.8643 10.2045C45.6143 9.5 45.228 8.93466 44.7053 8.50852C44.1825 8.08239 43.5234 7.86932 42.728 7.86932C41.9268 7.86932 41.2621 8.08239 40.7337 8.50852C40.2109 8.93466 39.8217 9.5 39.5661 10.2045C39.3161 10.9034 39.1911 11.6705 39.1911 12.5057C39.1911 13.3466 39.3161 14.1165 39.5661 14.8153C39.8217 15.5142 40.2109 16.0739 40.7337 16.4943C41.2621 16.9148 41.9268 17.125 42.728 17.125ZM56.5668 19.2557C55.5099 19.2557 54.5668 18.9858 53.7372 18.446C52.9134 17.9006 52.2656 17.125 51.794 16.1193C51.3281 15.108 51.0952 13.8949 51.0952 12.4801C51.0952 11.0653 51.331 9.85511 51.8026 8.84943C52.2798 7.84375 52.9332 7.07386 53.7628 6.53977C54.5923 6.00568 55.5327 5.73864 56.5838 5.73864C57.3963 5.73864 58.0497 5.875 58.544 6.14773C59.044 6.41477 59.4304 6.72727 59.7031 7.08523C59.9815 7.44318 60.1974 7.75852 60.3509 8.03125H60.5043V1.54545H63.0526V19H60.5639V16.9631H60.3509C60.1974 17.2415 59.9759 17.5597 59.6861 17.9176C59.402 18.2756 59.0099 18.5881 58.5099 18.8551C58.0099 19.1222 57.3622 19.2557 56.5668 19.2557ZM57.1293 17.0824C57.8622 17.0824 58.4815 16.8892 58.9872 16.5028C59.4986 16.1108 59.8849 15.5682 60.1463 14.875C60.4134 14.1818 60.5469 13.375 60.5469 12.4545C60.5469 11.5455 60.4162 10.75 60.1548 10.0682C59.8935 9.38636 59.5099 8.85511 59.0043 8.47443C58.4986 8.09375 57.8736 7.90341 57.1293 7.90341C56.3622 7.90341 55.723 8.10227 55.2116 8.5C54.7003 8.89773 54.3139 9.44034 54.0526 10.1278C53.7969 10.8153 53.669 11.5909 53.669 12.4545C53.669 13.3295 53.7997 14.1165 54.0611 14.8153C54.3224 15.5142 54.7088 16.0682 55.2202 16.4773C55.7372 16.8807 56.3736 17.0824 57.1293 17.0824ZM72.3317 19.2642C71.0419 19.2642 69.9311 18.9886 68.9993 18.4375C68.0732 17.8807 67.3572 17.0994 66.8516 16.0938C66.3516 15.0824 66.1016 13.8977 66.1016 12.5398C66.1016 11.1989 66.3516 10.017 66.8516 8.99432C67.3572 7.97159 68.0618 7.1733 68.9652 6.59943C69.8743 6.02557 70.9368 5.73864 72.1527 5.73864C72.8913 5.73864 73.6072 5.8608 74.3004 6.10511C74.9936 6.34943 75.6158 6.73295 76.1669 7.25568C76.718 7.77841 77.1527 8.45739 77.4709 9.29261C77.7891 10.1222 77.9482 11.1307 77.9482 12.3182V13.2216H67.5419V11.3125H75.451C75.451 10.642 75.3146 10.0483 75.0419 9.53125C74.7692 9.00852 74.3857 8.59659 73.8913 8.29545C73.4027 7.99432 72.8288 7.84375 72.1697 7.84375C71.4538 7.84375 70.8288 8.01989 70.2947 8.37216C69.7663 8.71875 69.3572 9.1733 69.0675 9.7358C68.7834 10.2926 68.6413 10.8977 68.6413 11.5511V13.0426C68.6413 13.9176 68.7947 14.6619 69.1016 15.2756C69.4141 15.8892 69.8487 16.358 70.4055 16.6818C70.9624 17 71.6129 17.1591 72.3572 17.1591C72.8402 17.1591 73.2805 17.0909 73.6783 16.9545C74.076 16.8125 74.4197 16.6023 74.7095 16.3239C74.9993 16.0455 75.2209 15.7017 75.3743 15.2926L77.7862 15.7273C77.593 16.4375 77.2464 17.0597 76.7464 17.5938C76.2521 18.1222 75.63 18.5341 74.88 18.8295C74.1357 19.1193 73.2862 19.2642 72.3317 19.2642Z" fill="white"/>
</svg>
